<?xml version="1.0" encoding="UTF-8"?>
<svg width="128" height="128" viewBox="0 0 128 128" xmlns="http://www.w3.org/2000/svg">
  <defs>
    <!-- Gradiente Gruvbox -->
    <linearGradient id="bgGradient" x1="0%" y1="0%" x2="100%" y2="100%">
      <stop offset="0%" style="stop-color:#282828;stop-opacity:1" />
      <stop offset="100%" style="stop-color:#3c3836;stop-opacity:1" />
    </linearGradient>
    
    <!-- Sombra -->
    <filter id="shadow" x="-50%" y="-50%" width="200%" height="200%">
      <feDropShadow dx="2" dy="2" stdDeviation="3" flood-color="#1d2021" flood-opacity="0.5"/>
    </filter>
  </defs>
  
  <!-- Fundo circular -->
  <circle cx="64" cy="64" r="60" fill="url(#bgGradient)" stroke="#504945" stroke-width="2" filter="url(#shadow)"/>
  
  <!-- Ícone de relógio/atividade -->
  <!-- Círculo do relógio -->
  <circle cx="64" cy="64" r="35" fill="none" stroke="#ebdbb2" stroke-width="3"/>
  
  <!-- Ponteiros do relógio -->
  <line x1="64" y1="64" x2="64" y2="40" stroke="#fabd2f" stroke-width="4" stroke-linecap="round"/>
  <line x1="64" y1="64" x2="80" y2="64" stroke="#fe8019" stroke-width="3" stroke-linecap="round"/>
  
  <!-- Centro do relógio -->
  <circle cx="64" cy="64" r="4" fill="#fb4934"/>
  
  <!-- Marcadores de hora -->
  <circle cx="64" cy="29" r="2" fill="#ebdbb2"/>
  <circle cx="99" cy="64" r="2" fill="#ebdbb2"/>
  <circle cx="64" cy="99" r="2" fill="#ebdbb2"/>
  <circle cx="29" cy="64" r="2" fill="#ebdbb2"/>
  
  <!-- Ícone de pergunta/inquérito -->
  <path d="M 45 20 Q 50 15 55 20 Q 60 25 55 30 L 52 35 M 52 40 L 52 42" 
        stroke="#8ec07c" stroke-width="2.5" fill="none" stroke-linecap="round"/>
  
  <!-- Ícone de lista/atividades -->
  <rect x="75" y="85" width="15" height="2" fill="#b8bb26" rx="1"/>
  <rect x="75" y="90" width="12" height="2" fill="#b8bb26" rx="1"/>
  <rect x="75" y="95" width="18" height="2" fill="#b8bb26" rx="1"/>
  
  <!-- Pontos indicadores -->
  <circle cx="72" cy="86" r="1.5" fill="#d3869b"/>
  <circle cx="72" cy="91" r="1.5" fill="#d3869b"/>
  <circle cx="72" cy="96" r="1.5" fill="#d3869b"/>
</svg>